<svg height="512pt" viewBox="0 0 512 512" width="512pt" xmlns="http://www.w3.org/2000/svg"><path d="m492.542969 153.601562h-473.085938c-2.625-.003906-5.101562-1.210937-6.714843-3.277343-1.617188-2.066407-2.191407-4.757813-1.5625-7.304688l21.332031-85.335937c.917969-3.609375 4.046875-6.226563 7.765625-6.484375h430.933594c3.921874.003906 7.335937 2.679687 8.277343 6.484375l21.332031 85.335937c.628907 2.546875.054688 5.238281-1.5625 7.304688-1.613281 2.066406-4.089843 3.273437-6.714843 3.277343zm0 0" fill="#c52828"/><path d="m464.554688 153.601562h-445.097657c-2.625-.003906-5.101562-1.210937-6.714843-3.277343-1.617188-2.066407-2.191407-4.757813-1.5625-7.304688l21.332031-85.335937c.917969-3.609375 4.046875-6.226563 7.765625-6.484375h402.945312c3.921875.003906 7.335938 2.679687 8.277344 6.484375l21.332031 85.335937c.628907 2.546875.054688 5.238281-1.5625 7.304688-1.617187 2.066406-4.09375 3.273437-6.714843 3.277343zm0 0" fill="#f44335"/><path d="m481.109375 153.601562v290.132813h-443.734375v-290.132813h66.304688c4.542968-.035156 8.890624-1.84375 12.117187-5.035156l32.511719-32.597656 73.300781-73.300781 23.210937-23.296875 8.277344-8.363282c3.386719-3.328124 8.816406-3.328124 12.203125 0l31.488281 31.660157 8.535157 8.53125 5.117187 5.035156 59.734375 59.734375 32.425781 32.597656c3.230469 3.191406 7.578126 5 12.117188 5.035156zm0 0" fill="#ffb301"/><path d="m452.265625 153.601562v290.132813h-414.890625v-290.132813h66.304688c4.542968-.035156 8.890624-1.84375 12.117187-5.035156l32.511719-32.597656 73.300781-73.300781 23.210937-23.296875 23.210938 23.296875 8.535156 8.53125 5.035156 5.035156 59.730469 59.734375 32.511719 32.597656c3.210938 3.21875 7.570312 5.03125 12.117188 5.035156zm0 0" fill="#fdd834"/><path d="m256 315.734375c-18.851562 0-34.132812 15.28125-34.132812 34.132813v92.007812h68.265624v-92.007812c0-18.851563-15.28125-34.132813-34.132812-34.132813zm0 0" fill="#c52828"/><path d="m221.867188 349.890625h68.265624v91.984375h-68.265624zm0 0" fill="#c52828"/><path d="m221.867188 349.890625h42.667968v91.984375h-42.667968zm0 0" fill="#f44335"/><g fill="#0377bc"><path d="m102.398438 196.265625h-25.597657c-4.714843 0-8.535156 3.820313-8.535156 8.535156v68.265625c0 4.714844 3.820313 8.535156 8.535156 8.535156h25.597657c4.714843 0 8.535156-3.820312 8.535156-8.535156v-68.265625c0-4.714843-3.820313-8.535156-8.535156-8.535156zm0 0"/><path d="m179.199219 196.265625h-25.597657c-4.714843 0-8.535156 3.820313-8.535156 8.535156v68.265625c0 4.714844 3.820313 8.535156 8.535156 8.535156h25.597657c4.714843 0 8.535156-3.820312 8.535156-8.535156v-68.265625c0-4.714843-3.820313-8.535156-8.535156-8.535156zm0 0"/><path d="m102.398438 315.734375h-25.597657c-4.714843 0-8.535156 3.820313-8.535156 8.53125v68.269531c0 4.710938 3.820313 8.53125 8.535156 8.53125h25.597657c4.714843 0 8.535156-3.820312 8.535156-8.53125v-68.269531c0-4.710937-3.820313-8.53125-8.535156-8.53125zm0 0"/><path d="m179.199219 315.734375h-25.597657c-4.714843 0-8.535156 3.820313-8.535156 8.53125v68.269531c0 4.710938 3.820313 8.53125 8.535156 8.53125h25.597657c4.714843 0 8.535156-3.820312 8.535156-8.53125v-68.269531c0-4.710937-3.820313-8.53125-8.535156-8.53125zm0 0"/><path d="m358.398438 196.265625h-25.597657c-4.714843 0-8.535156 3.820313-8.535156 8.535156v68.265625c0 4.714844 3.820313 8.535156 8.535156 8.535156h25.597657c4.714843 0 8.535156-3.820312 8.535156-8.535156v-68.265625c0-4.714843-3.820313-8.535156-8.535156-8.535156zm0 0"/><path d="m435.199219 196.265625h-25.597657c-4.714843 0-8.535156 3.820313-8.535156 8.535156v68.265625c0 4.714844 3.820313 8.535156 8.535156 8.535156h25.597657c4.714843 0 8.535156-3.820312 8.535156-8.535156v-68.265625c0-4.714843-3.820313-8.535156-8.535156-8.535156zm0 0"/><path d="m358.398438 315.734375h-25.597657c-4.714843 0-8.535156 3.820313-8.535156 8.53125v68.269531c0 4.710938 3.820313 8.53125 8.535156 8.53125h25.597657c4.714843 0 8.535156-3.820312 8.535156-8.53125v-68.269531c0-4.710937-3.820313-8.53125-8.535156-8.53125zm0 0"/><path d="m435.199219 315.734375h-25.597657c-4.714843 0-8.535156 3.820313-8.535156 8.53125v68.269531c0 4.710938 3.820313 8.53125 8.535156 8.53125h25.597657c4.714843 0 8.535156-3.820312 8.535156-8.53125v-68.269531c0-4.710937-3.820313-8.53125-8.535156-8.53125zm0 0"/><path d="m281.601562 213.332031h-51.203124c-4.710938 0-8.53125 3.820313-8.53125 8.535157v51.199218c0 4.714844 3.820312 8.535156 8.53125 8.535156h51.203124c4.710938 0 8.53125-3.820312 8.53125-8.535156v-51.199218c0-4.714844-3.820312-8.535157-8.53125-8.535157zm0 0"/></g><path d="m25.601562 435.199219h460.796876c4.714843 0 8.535156 3.820312 8.535156 8.535156v29.867187h-477.867188v-29.867187c0-4.714844 3.820313-8.535156 8.535156-8.535156zm0 0" fill="#37474f"/><path d="m25.601562 435.199219h426.664063c4.714844 0 8.535156 3.820312 8.535156 8.535156v29.867187h-443.734375v-29.867187c0-4.714844 3.820313-8.535156 8.535156-8.535156zm0 0" fill="#607d8b"/><path d="m307.199219 128.027344c0 28.273437-22.921875 51.199218-51.199219 51.199218s-51.199219-22.925781-51.199219-51.199218c0-28.277344 22.921875-51.203125 51.199219-51.203125s51.199219 22.925781 51.199219 51.203125zm0 0" fill="#607d8b"/><path d="m281.601562 128.027344c0-28.277344-17.195312-51.203125-38.402343-51.203125s-38.398438 22.925781-38.398438 51.203125c0 28.273437 17.191407 51.199218 38.398438 51.199218s38.402343-22.925781 38.402343-51.199218zm0 0" fill="#cfd8dc"/><path d="m68.265625 247.464844h42.667969v25.601562c0 4.714844-3.820313 8.535156-8.535156 8.535156h-25.597657c-4.714843 0-8.535156-3.820312-8.535156-8.535156zm0 0" fill="#2296f3"/><path d="m145.066406 247.464844h42.667969v25.601562c0 4.714844-3.820313 8.535156-8.535156 8.535156h-25.597657c-4.714843 0-8.535156-3.820312-8.535156-8.535156zm0 0" fill="#2296f3"/><path d="m68.265625 366.933594h42.667969v25.601562c0 4.710938-3.820313 8.53125-8.535156 8.53125h-25.597657c-4.714843 0-8.535156-3.820312-8.535156-8.53125zm0 0" fill="#2296f3"/><path d="m145.066406 366.933594h42.667969v25.601562c0 4.710938-3.820313 8.53125-8.535156 8.53125h-25.597657c-4.714843 0-8.535156-3.820312-8.535156-8.53125zm0 0" fill="#2296f3"/><path d="m324.265625 247.464844h42.667969v25.601562c0 4.714844-3.820313 8.535156-8.535156 8.535156h-25.597657c-4.714843 0-8.535156-3.820312-8.535156-8.535156zm0 0" fill="#2296f3"/><path d="m401.066406 247.464844h42.667969v25.601562c0 4.714844-3.820313 8.535156-8.535156 8.535156h-25.597657c-4.714843 0-8.535156-3.820312-8.535156-8.535156zm0 0" fill="#2296f3"/><path d="m324.265625 366.933594h42.667969v25.601562c0 4.710938-3.820313 8.53125-8.535156 8.53125h-25.597657c-4.714843 0-8.535156-3.820312-8.535156-8.53125zm0 0" fill="#2296f3"/><path d="m401.066406 366.933594h42.667969v25.601562c0 4.710938-3.820313 8.53125-8.535156 8.53125h-25.597657c-4.714843 0-8.535156-3.820312-8.535156-8.53125zm0 0" fill="#2296f3"/><path d="m273.066406 392.558594c0 4.714844-3.820312 8.535156-8.53125 8.535156-4.714844 0-8.535156-3.820312-8.535156-8.535156 0-4.710938 3.820312-8.53125 8.535156-8.53125 4.710938 0 8.53125 3.820312 8.53125 8.53125zm0 0" fill="#2c2f38"/><path d="m17.066406 469.332031h477.867188c4.710937 0 8.53125 3.820313 8.53125 8.535157v17.066406c0 4.710937-3.820313 8.53125-8.53125 8.53125h-477.867188c-4.710937 0-8.53125-3.820313-8.53125-8.53125v-17.066406c0-4.714844 3.820313-8.535157 8.53125-8.535157zm0 0" fill="#37474f"/><path d="m8.535156 469.332031h460.796875c4.714844 0 8.535157 3.820313 8.535157 8.535157v17.066406c0 4.710937-3.820313 8.53125-8.535157 8.53125h-460.796875c-4.714844 0-8.535156-3.820313-8.535156-8.53125v-17.066406c0-4.714844 3.820312-8.535157 8.535156-8.535157zm0 0" fill="#607d8b"/><path d="m221.867188 247.464844h68.265624v25.601562c0 4.714844-3.820312 8.535156-8.53125 8.535156h-51.203124c-4.710938 0-8.53125-3.820312-8.53125-8.535156zm0 0" fill="#2296f3"/><path d="m85.332031 8.535156h8.535157c9.425781 0 17.066406 7.640625 17.066406 17.066406v59.730469c0 4.714844-3.820313 8.535157-8.535156 8.535157h-25.597657c-4.714843 0-8.535156-3.820313-8.535156-8.535157v-59.730469c0-9.425781 7.640625-17.066406 17.066406-17.066406zm0 0" fill="#cfd8dc"/><path d="m256 187.734375c32.988281 0 59.734375-26.746094 59.734375-59.734375s-26.746094-59.734375-59.734375-59.734375-59.734375 26.746094-59.734375 59.734375c.039063 32.972656 26.761719 59.695312 59.734375 59.734375zm0-102.402344c23.5625 0 42.667969 19.105469 42.667969 42.667969s-19.105469 42.667969-42.667969 42.667969-42.667969-19.105469-42.667969-42.667969c.03125-23.550781 19.117188-42.636719 42.667969-42.667969zm0 0"/><path d="m256 136.535156h17.066406c4.714844 0 8.535156-3.824218 8.535156-8.535156s-3.820312-8.535156-8.535156-8.535156h-8.53125v-8.53125c0-4.714844-3.824218-8.535156-8.535156-8.535156s-8.535156 3.820312-8.535156 8.535156v17.066406c0 4.710938 3.824218 8.535156 8.535156 8.535156zm0 0"/><path d="m102.398438 187.734375h-25.597657c-9.425781 0-17.066406 7.640625-17.066406 17.066406v68.265625c0 9.425782 7.640625 17.066406 17.066406 17.066406h25.597657c9.425781 0 17.066406-7.640624 17.066406-17.066406v-68.265625c0-9.425781-7.640625-17.066406-17.066406-17.066406zm-25.597657 17.066406h25.597657v34.132813h-25.597657zm0 68.265625v-17.066406h25.597657v17.066406zm0 0"/><path d="m179.199219 187.734375h-25.597657c-9.425781 0-17.066406 7.640625-17.066406 17.066406v68.265625c0 9.425782 7.640625 17.066406 17.066406 17.066406h25.597657c9.425781 0 17.066406-7.640624 17.066406-17.066406v-68.265625c0-9.425781-7.640625-17.066406-17.066406-17.066406zm-25.597657 17.066406h25.597657v34.132813h-25.597657zm0 68.265625v-17.066406h25.597657v17.066406zm0 0"/><path d="m102.398438 307.199219h-25.597657c-9.425781 0-17.066406 7.640625-17.066406 17.066406v68.269531c0 9.425782 7.640625 17.066406 17.066406 17.066406h25.597657c9.425781 0 17.066406-7.640624 17.066406-17.066406v-68.269531c0-9.425781-7.640625-17.066406-17.066406-17.066406zm-25.597657 17.066406h25.597657v34.132813h-25.597657zm0 68.269531v-17.070312h25.597657v17.070312zm0 0"/><path d="m179.199219 307.199219h-25.597657c-9.425781 0-17.066406 7.640625-17.066406 17.066406v68.269531c0 9.425782 7.640625 17.066406 17.066406 17.066406h25.597657c9.425781 0 17.066406-7.640624 17.066406-17.066406v-68.269531c0-9.425781-7.640625-17.066406-17.066406-17.066406zm-25.597657 17.066406h25.597657v34.132813h-25.597657zm0 68.269531v-17.070312h25.597657v17.070312zm0 0"/><path d="m315.734375 247.464844v25.601562c0 9.425782 7.640625 17.066406 17.066406 17.066406h25.597657c9.425781 0 17.066406-7.640624 17.066406-17.066406v-68.265625c0-9.425781-7.640625-17.066406-17.066406-17.066406h-25.597657c-9.425781 0-17.066406 7.640625-17.066406 17.066406zm17.066406 25.601562v-17.066406h25.597657v17.066406zm0-68.265625h25.597657v34.132813h-25.597657zm0 0"/><path d="m409.601562 290.132812h25.597657c9.425781 0 17.066406-7.640624 17.066406-17.066406v-68.265625c0-9.425781-7.640625-17.066406-17.066406-17.066406h-25.597657c-9.425781 0-17.066406 7.640625-17.066406 17.066406v68.265625c0 9.425782 7.640625 17.066406 17.066406 17.066406zm0-17.066406v-17.066406h25.597657v17.066406zm0-68.265625h25.597657v34.132813h-25.597657zm0 0"/><path d="m358.398438 307.199219h-25.597657c-9.425781 0-17.066406 7.640625-17.066406 17.066406v68.269531c0 9.425782 7.640625 17.066406 17.066406 17.066406h25.597657c9.425781 0 17.066406-7.640624 17.066406-17.066406v-68.269531c0-9.425781-7.640625-17.066406-17.066406-17.066406zm-25.597657 17.066406h25.597657v34.132813h-25.597657zm0 68.269531v-17.070312h25.597657v17.070312zm0 0"/><path d="m409.601562 409.601562h25.597657c9.425781 0 17.066406-7.640624 17.066406-17.066406v-68.269531c0-9.425781-7.640625-17.066406-17.066406-17.066406h-25.597657c-9.425781 0-17.066406 7.640625-17.066406 17.066406v68.269531c0 9.425782 7.640625 17.066406 17.066406 17.066406zm0-17.066406v-17.070312h25.597657v17.070312zm0-68.269531h25.597657v34.132813h-25.597657zm0 0"/><path d="m273.066406 392.558594c0 4.714844-3.820312 8.535156-8.53125 8.535156-4.714844 0-8.535156-3.820312-8.535156-8.535156 0-4.710938 3.820312-8.53125 8.535156-8.53125 4.710938 0 8.53125 3.820312 8.53125 8.53125zm0 0"/><path d="m503.464844 463.171875v-19.4375c0-9.425781-7.640625-17.066406-17.066406-17.066406v-264.535157h6.144531c5.253906 0 10.210937-2.421874 13.441406-6.558593 3.234375-4.136719 4.382813-9.535157 3.113281-14.628907l-21.332031-85.332031c-1.875-7.617187-8.710937-12.964843-16.554687-12.945312h-165.546876l-37.5625-37.691407c-6.777343-6.453124-17.425781-6.453124-24.203124 0l-37.628907 37.691407h-86.804687v-17.066407c0-14.140624-11.460938-25.601562-25.597656-25.601562h-8.535157c-14.136719 0-25.597656 11.460938-25.597656 25.601562v17.066407h-18.945313c-7.84375-.027344-14.6875 5.324219-16.554687 12.945312l-21.332031 85.332031c-1.269532 5.09375-.121094 10.492188 3.113281 14.628907 3.230469 4.136719 8.1875 6.558593 13.441406 6.558593h6.144531v264.535157c-9.425781 0-17.066406 7.640625-17.066406 17.066406v19.4375c-5.265625 3.023437-8.5156248 8.625-8.535156 14.695313v17.066406c0 9.425781 7.640625 17.066406 17.066406 17.066406h477.867188c9.425781 0 17.066406-7.640625 17.066406-17.066406v-17.066406c-.019531-6.070313-3.269531-11.671876-8.535156-14.695313zm-32.246094-403.4375 21.332031 85.332031h-80.988281c-2.285156-.003906-4.476562-.925781-6.074219-2.558594l-82.722656-82.773437zm-394.417969-34.132813c0-4.714843 3.820313-8.535156 8.53125-8.535156h8.535157c4.710937 0 8.53125 3.820313 8.53125 8.535156v59.730469h-25.597657zm-57.351562 119.464844 21.339843-85.332031h18.945313v25.597656c0 9.425781 7.640625 17.066407 17.066406 17.066407h25.597657c9.425781 0 17.066406-7.640626 17.066406-17.066407v-25.597656h69.753906l-82.6875 82.773437c-1.605469 1.636719-3.800781 2.558594-6.09375 2.558594zm23.21875 17.066406h57.769531c6.816406.011719 13.355469-2.707031 18.160156-7.542968l97.234375-97.332032.0625-.085937 40.105469-40.105469 137.386719 137.539063c4.808593 4.839843 11.355469 7.546875 18.175781 7.527343h57.769531v264.535157h-170.664062v-76.800781c0-23.566407-19.105469-42.667969-42.667969-42.667969s-42.667969 19.101562-42.667969 42.667969v76.800781h-170.664062zm187.730469 196.265626h51.203124v68.269531h-51.203124zm1.460937-17.066407c3.613281-10.234375 13.285156-17.078125 24.140625-17.078125s20.527344 6.84375 24.140625 17.078125zm-206.257813 102.402344h460.796876v17.066406h-460.796876zm-8.535156 51.199219v-17.066406h477.867188v17.066406zm0 0"/><path d="m281.601562 204.800781h-51.203124c-9.425782 0-17.066407 7.640625-17.066407 17.066407v51.199218c0 9.425782 7.640625 17.066406 17.066407 17.066406h51.203124c9.425782 0 17.066407-7.640624 17.066407-17.066406v-51.199218c0-9.425782-7.640625-17.066407-17.066407-17.066407zm-51.203124 17.066407h51.203124v17.066406h-51.203124zm0 51.199218v-17.066406h51.203124v17.066406zm0 0"/></svg>